<svg width="171" height="216" viewBox="0 0 171 216" fill="none" xmlns="http://www.w3.org/2000/svg">
    <g clip-path="url(#clip0_1_1167)">
        <path d="M169.88 0.47998H0.47998V214.91H169.88V0.47998Z" fill="white" stroke="#BABABA"
            stroke-width="0.95" stroke-miterlimit="10" />
        <path
            d="M46.155 161.84V163.845H48.685V164.88H46.155V166.925H49.365V168H44.805V160.77H49.365V161.84H46.155ZM50.2545 168V162.87H51.0095C51.1695 162.87 51.2745 162.945 51.3245 163.095L51.4045 163.475C51.4945 163.375 51.5879 163.283 51.6845 163.2C51.7845 163.117 51.8895 163.045 51.9995 162.985C52.1129 162.925 52.2329 162.878 52.3595 162.845C52.4895 162.808 52.6312 162.79 52.7845 162.79C53.1079 162.79 53.3729 162.878 53.5795 163.055C53.7895 163.228 53.9462 163.46 54.0495 163.75C54.1295 163.58 54.2295 163.435 54.3495 163.315C54.4695 163.192 54.6012 163.092 54.7445 163.015C54.8879 162.938 55.0395 162.882 55.1995 162.845C55.3629 162.808 55.5262 162.79 55.6895 162.79C55.9729 162.79 56.2245 162.833 56.4445 162.92C56.6645 163.007 56.8495 163.133 56.9995 163.3C57.1495 163.467 57.2629 163.67 57.3395 163.91C57.4195 164.15 57.4595 164.425 57.4595 164.735V168H56.2245V164.735C56.2245 164.408 56.1529 164.163 56.0095 164C55.8662 163.833 55.6562 163.75 55.3795 163.75C55.2529 163.75 55.1345 163.772 55.0245 163.815C54.9179 163.858 54.8229 163.922 54.7395 164.005C54.6595 164.085 54.5962 164.187 54.5495 164.31C54.5029 164.433 54.4795 164.575 54.4795 164.735V168H53.2395V164.735C53.2395 164.392 53.1695 164.142 53.0295 163.985C52.8929 163.828 52.6912 163.75 52.4245 163.75C52.2445 163.75 52.0762 163.795 51.9195 163.885C51.7662 163.972 51.6229 164.092 51.4895 164.245V168H50.2545ZM59.8684 166.67C60.0084 166.84 60.1601 166.96 60.3234 167.03C60.4901 167.1 60.6701 167.135 60.8634 167.135C61.0501 167.135 61.2184 167.1 61.3684 167.03C61.5184 166.96 61.6451 166.853 61.7484 166.71C61.8551 166.567 61.9368 166.387 61.9934 166.17C62.0501 165.95 62.0784 165.692 62.0784 165.395C62.0784 165.095 62.0534 164.842 62.0034 164.635C61.9568 164.425 61.8884 164.255 61.7984 164.125C61.7084 163.995 61.5984 163.9 61.4684 163.84C61.3418 163.78 61.1968 163.75 61.0334 163.75C60.7768 163.75 60.5584 163.805 60.3784 163.915C60.1984 164.022 60.0284 164.173 59.8684 164.37V166.67ZM59.8034 163.57C60.0134 163.333 60.2518 163.142 60.5184 162.995C60.7851 162.848 61.0984 162.775 61.4584 162.775C61.7384 162.775 61.9934 162.833 62.2234 162.95C62.4568 163.067 62.6568 163.237 62.8234 163.46C62.9934 163.68 63.1234 163.953 63.2134 164.28C63.3068 164.603 63.3534 164.975 63.3534 165.395C63.3534 165.778 63.3018 166.133 63.1984 166.46C63.0951 166.787 62.9468 167.07 62.7534 167.31C62.5634 167.55 62.3318 167.738 62.0584 167.875C61.7884 168.008 61.4851 168.075 61.1484 168.075C60.8618 168.075 60.6168 168.032 60.4134 167.945C60.2101 167.855 60.0284 167.732 59.8684 167.575V169.675H58.6334V162.87H59.3884C59.5484 162.87 59.6534 162.945 59.7034 163.095L59.8034 163.57ZM65.9587 168.08C65.512 168.08 65.1687 167.955 64.9287 167.705C64.692 167.452 64.5737 167.103 64.5737 166.66V163.795H64.0487C63.982 163.795 63.9253 163.773 63.8787 163.73C63.832 163.687 63.8087 163.622 63.8087 163.535V163.045L64.6337 162.91L64.8937 161.51C64.9103 161.443 64.942 161.392 64.9887 161.355C65.0353 161.318 65.0953 161.3 65.1687 161.3H65.8087V162.915H67.1787V163.795H65.8087V166.575C65.8087 166.735 65.847 166.86 65.9237 166.95C66.0037 167.04 66.112 167.085 66.2487 167.085C66.3253 167.085 66.3887 167.077 66.4387 167.06C66.492 167.04 66.537 167.02 66.5737 167C66.6137 166.98 66.6487 166.962 66.6787 166.945C66.7087 166.925 66.7387 166.915 66.7687 166.915C66.8053 166.915 66.8353 166.925 66.8587 166.945C66.882 166.962 66.907 166.988 66.9337 167.025L67.3037 167.625C67.1237 167.775 66.917 167.888 66.6837 167.965C66.4503 168.042 66.2087 168.08 65.9587 168.08ZM72.6294 162.87L69.8344 169.41C69.7977 169.497 69.7494 169.562 69.6894 169.605C69.6327 169.652 69.5444 169.675 69.4244 169.675H68.5044L69.4644 167.615L67.3894 162.87H68.4744C68.571 162.87 68.646 162.893 68.6994 162.94C68.756 162.987 68.7977 163.04 68.8244 163.1L69.9144 165.76C69.951 165.85 69.981 165.94 70.0044 166.03C70.031 166.12 70.056 166.212 70.0794 166.305C70.1094 166.212 70.1394 166.12 70.1694 166.03C70.1994 165.937 70.2327 165.845 70.2694 165.755L71.2994 163.1C71.326 163.033 71.3694 162.978 71.4294 162.935C71.4927 162.892 71.5627 162.87 71.6394 162.87H72.6294ZM80.3628 161.875H78.1828V168H76.8378V161.875H74.6578V160.77H80.3628V161.875ZM81.273 163.76C81.433 163.453 81.623 163.213 81.843 163.04C82.063 162.863 82.323 162.775 82.623 162.775C82.8597 162.775 83.0497 162.827 83.193 162.93L83.113 163.855C83.0964 163.915 83.0714 163.958 83.038 163.985C83.008 164.008 82.9664 164.02 82.913 164.02C82.863 164.02 82.788 164.012 82.688 163.995C82.5914 163.978 82.4964 163.97 82.403 163.97C82.2664 163.97 82.1447 163.99 82.038 164.03C81.9314 164.07 81.8347 164.128 81.748 164.205C81.6647 164.278 81.5897 164.368 81.523 164.475C81.4597 164.582 81.3997 164.703 81.343 164.84V168H80.108V162.87H80.833C80.9597 162.87 81.048 162.893 81.098 162.94C81.148 162.983 81.1814 163.063 81.198 163.18L81.273 163.76ZM86.4802 165.81C86.1235 165.827 85.8235 165.858 85.5802 165.905C85.3368 165.948 85.1418 166.005 84.9952 166.075C84.8485 166.145 84.7435 166.227 84.6802 166.32C84.6168 166.413 84.5852 166.515 84.5852 166.625C84.5852 166.842 84.6485 166.997 84.7752 167.09C84.9052 167.183 85.0735 167.23 85.2802 167.23C85.5335 167.23 85.7518 167.185 85.9352 167.095C86.1218 167.002 86.3035 166.862 86.4802 166.675V165.81ZM83.6502 163.585C84.2402 163.045 84.9502 162.775 85.7802 162.775C86.0802 162.775 86.3485 162.825 86.5852 162.925C86.8218 163.022 87.0218 163.158 87.1852 163.335C87.3485 163.508 87.4718 163.717 87.5552 163.96C87.6418 164.203 87.6852 164.47 87.6852 164.76V168H87.1252C87.0085 168 86.9185 167.983 86.8552 167.95C86.7918 167.913 86.7418 167.842 86.7052 167.735L86.5952 167.365C86.4652 167.482 86.3385 167.585 86.2152 167.675C86.0918 167.762 85.9635 167.835 85.8302 167.895C85.6968 167.955 85.5535 168 85.4002 168.03C85.2502 168.063 85.0835 168.08 84.9002 168.08C84.6835 168.08 84.4835 168.052 84.3002 167.995C84.1168 167.935 83.9585 167.847 83.8252 167.73C83.6918 167.613 83.5885 167.468 83.5152 167.295C83.4418 167.122 83.4052 166.92 83.4052 166.69C83.4052 166.56 83.4268 166.432 83.4702 166.305C83.5135 166.175 83.5835 166.052 83.6802 165.935C83.7802 165.818 83.9085 165.708 84.0652 165.605C84.2218 165.502 84.4135 165.412 84.6402 165.335C84.8702 165.258 85.1368 165.197 85.4402 165.15C85.7435 165.1 86.0902 165.07 86.4802 165.06V164.76C86.4802 164.417 86.4068 164.163 86.2602 164C86.1135 163.833 85.9018 163.75 85.6252 163.75C85.4252 163.75 85.2585 163.773 85.1252 163.82C84.9952 163.867 84.8802 163.92 84.7802 163.98C84.6802 164.037 84.5885 164.088 84.5052 164.135C84.4252 164.182 84.3352 164.205 84.2352 164.205C84.1485 164.205 84.0752 164.183 84.0152 164.14C83.9552 164.093 83.9068 164.04 83.8702 163.98L83.6502 163.585ZM90.0033 163.5C90.1066 163.397 90.2149 163.302 90.3283 163.215C90.4449 163.125 90.5666 163.05 90.6933 162.99C90.8233 162.927 90.9616 162.878 91.1083 162.845C91.2549 162.808 91.4149 162.79 91.5883 162.79C91.8683 162.79 92.1166 162.838 92.3333 162.935C92.5499 163.028 92.7299 163.162 92.8733 163.335C93.0199 163.505 93.1299 163.71 93.2033 163.95C93.2799 164.187 93.3183 164.448 93.3183 164.735V168H92.0833V164.735C92.0833 164.422 92.0116 164.18 91.8683 164.01C91.7249 163.837 91.5066 163.75 91.2133 163.75C90.9999 163.75 90.7999 163.798 90.6133 163.895C90.4266 163.992 90.2499 164.123 90.0833 164.29V168H88.8483V162.87H89.6033C89.7633 162.87 89.8683 162.945 89.9183 163.095L90.0033 163.5ZM97.6228 163.87C97.5895 163.923 97.5545 163.962 97.5178 163.985C97.4811 164.005 97.4345 164.015 97.3778 164.015C97.3178 164.015 97.2528 163.998 97.1828 163.965C97.1161 163.932 97.0378 163.895 96.9478 163.855C96.8578 163.812 96.7545 163.773 96.6378 163.74C96.5245 163.707 96.3895 163.69 96.2328 163.69C95.9895 163.69 95.7978 163.742 95.6578 163.845C95.5211 163.948 95.4528 164.083 95.4528 164.25C95.4528 164.36 95.4878 164.453 95.5578 164.53C95.6311 164.603 95.7261 164.668 95.8428 164.725C95.9628 164.782 96.0978 164.833 96.2478 164.88C96.3978 164.923 96.5495 164.972 96.7028 165.025C96.8595 165.078 97.0128 165.14 97.1628 165.21C97.3128 165.277 97.4461 165.363 97.5628 165.47C97.6828 165.573 97.7778 165.698 97.8478 165.845C97.9211 165.992 97.9578 166.168 97.9578 166.375C97.9578 166.622 97.9128 166.85 97.8228 167.06C97.7361 167.267 97.6061 167.447 97.4328 167.6C97.2595 167.75 97.0445 167.868 96.7878 167.955C96.5345 168.038 96.2411 168.08 95.9078 168.08C95.7311 168.08 95.5578 168.063 95.3878 168.03C95.2211 168 95.0595 167.957 94.9028 167.9C94.7495 167.843 94.6061 167.777 94.4728 167.7C94.3428 167.623 94.2278 167.54 94.1278 167.45L94.4128 166.98C94.4495 166.923 94.4928 166.88 94.5428 166.85C94.5928 166.82 94.6561 166.805 94.7328 166.805C94.8095 166.805 94.8811 166.827 94.9478 166.87C95.0178 166.913 95.0978 166.96 95.1878 167.01C95.2778 167.06 95.3828 167.107 95.5028 167.15C95.6261 167.193 95.7811 167.215 95.9678 167.215C96.1145 167.215 96.2395 167.198 96.3428 167.165C96.4495 167.128 96.5361 167.082 96.6028 167.025C96.6728 166.968 96.7228 166.903 96.7528 166.83C96.7861 166.753 96.8028 166.675 96.8028 166.595C96.8028 166.475 96.7661 166.377 96.6928 166.3C96.6228 166.223 96.5278 166.157 96.4078 166.1C96.2911 166.043 96.1561 165.993 96.0028 165.95C95.8528 165.903 95.6978 165.853 95.5378 165.8C95.3811 165.747 95.2261 165.685 95.0728 165.615C94.9228 165.542 94.7878 165.45 94.6678 165.34C94.5511 165.23 94.4561 165.095 94.3828 164.935C94.3128 164.775 94.2778 164.582 94.2778 164.355C94.2778 164.145 94.3195 163.945 94.4028 163.755C94.4861 163.565 94.6078 163.4 94.7678 163.26C94.9311 163.117 95.1328 163.003 95.3728 162.92C95.6161 162.833 95.8961 162.79 96.2128 162.79C96.5661 162.79 96.8878 162.848 97.1778 162.965C97.4678 163.082 97.7095 163.235 97.9028 163.425L97.6228 163.87ZM101.597 165.81C101.241 165.827 100.941 165.858 100.697 165.905C100.454 165.948 100.259 166.005 100.112 166.075C99.9657 166.145 99.8607 166.227 99.7973 166.32C99.734 166.413 99.7023 166.515 99.7023 166.625C99.7023 166.842 99.7657 166.997 99.8923 167.09C100.022 167.183 100.191 167.23 100.397 167.23C100.651 167.23 100.869 167.185 101.052 167.095C101.239 167.002 101.421 166.862 101.597 166.675V165.81ZM98.7673 163.585C99.3573 163.045 100.067 162.775 100.897 162.775C101.197 162.775 101.466 162.825 101.702 162.925C101.939 163.022 102.139 163.158 102.302 163.335C102.466 163.508 102.589 163.717 102.672 163.96C102.759 164.203 102.802 164.47 102.802 164.76V168H102.242C102.126 168 102.036 167.983 101.972 167.95C101.909 167.913 101.859 167.842 101.822 167.735L101.712 167.365C101.582 167.482 101.456 167.585 101.332 167.675C101.209 167.762 101.081 167.835 100.947 167.895C100.814 167.955 100.671 168 100.517 168.03C100.367 168.063 100.201 168.08 100.017 168.08C99.8007 168.08 99.6007 168.052 99.4173 167.995C99.234 167.935 99.0757 167.847 98.9423 167.73C98.809 167.613 98.7057 167.468 98.6323 167.295C98.559 167.122 98.5223 166.92 98.5223 166.69C98.5223 166.56 98.544 166.432 98.5873 166.305C98.6307 166.175 98.7007 166.052 98.7973 165.935C98.8973 165.818 99.0257 165.708 99.1823 165.605C99.339 165.502 99.5307 165.412 99.7573 165.335C99.9873 165.258 100.254 165.197 100.557 165.15C100.861 165.1 101.207 165.07 101.597 165.06V164.76C101.597 164.417 101.524 164.163 101.377 164C101.231 163.833 101.019 163.75 100.742 163.75C100.542 163.75 100.376 163.773 100.242 163.82C100.112 163.867 99.9973 163.92 99.8973 163.98C99.7973 164.037 99.7057 164.088 99.6223 164.135C99.5423 164.182 99.4523 164.205 99.3523 164.205C99.2657 164.205 99.1923 164.183 99.1323 164.14C99.0723 164.093 99.024 164.04 98.9873 163.98L98.7673 163.585ZM107.64 163.955C107.604 164.002 107.567 164.038 107.53 164.065C107.497 164.092 107.447 164.105 107.38 164.105C107.317 164.105 107.255 164.087 107.195 164.05C107.135 164.01 107.064 163.967 106.98 163.92C106.897 163.87 106.797 163.827 106.68 163.79C106.567 163.75 106.425 163.73 106.255 163.73C106.039 163.73 105.849 163.77 105.685 163.85C105.522 163.927 105.385 164.038 105.275 164.185C105.169 164.332 105.089 164.51 105.035 164.72C104.982 164.927 104.955 165.162 104.955 165.425C104.955 165.698 104.984 165.942 105.04 166.155C105.1 166.368 105.185 166.548 105.295 166.695C105.405 166.838 105.539 166.948 105.695 167.025C105.852 167.098 106.029 167.135 106.225 167.135C106.422 167.135 106.58 167.112 106.7 167.065C106.824 167.015 106.927 166.962 107.01 166.905C107.094 166.845 107.165 166.792 107.225 166.745C107.289 166.695 107.359 166.67 107.435 166.67C107.535 166.67 107.61 166.708 107.66 166.785L108.015 167.235C107.879 167.395 107.73 167.53 107.57 167.64C107.41 167.747 107.244 167.833 107.07 167.9C106.9 167.963 106.724 168.008 106.54 168.035C106.36 168.062 106.18 168.075 106 168.075C105.684 168.075 105.385 168.017 105.105 167.9C104.825 167.78 104.58 167.607 104.37 167.38C104.16 167.153 103.994 166.877 103.87 166.55C103.75 166.22 103.69 165.845 103.69 165.425C103.69 165.048 103.744 164.7 103.85 164.38C103.96 164.057 104.12 163.778 104.33 163.545C104.54 163.308 104.8 163.123 105.11 162.99C105.42 162.857 105.777 162.79 106.18 162.79C106.564 162.79 106.899 162.852 107.185 162.975C107.475 163.098 107.735 163.275 107.965 163.505L107.64 163.955ZM113.965 168H112.73V163.795H110.35V166.575C110.35 166.735 110.388 166.86 110.465 166.95C110.545 167.04 110.653 167.085 110.79 167.085C110.866 167.085 110.93 167.077 110.98 167.06C111.033 167.04 111.078 167.02 111.115 167C111.155 166.98 111.19 166.962 111.22 166.945C111.25 166.925 111.28 166.915 111.31 166.915C111.346 166.915 111.376 166.925 111.4 166.945C111.423 166.962 111.448 166.988 111.475 167.025L111.845 167.625C111.665 167.775 111.458 167.888 111.225 167.965C110.991 168.042 110.75 168.08 110.5 168.08C110.053 168.08 109.71 167.955 109.47 167.705C109.233 167.452 109.115 167.103 109.115 166.66V163.795H108.59C108.523 163.795 108.466 163.773 108.42 163.73C108.373 163.687 108.35 163.622 108.35 163.535V163.045L109.175 162.905L109.435 161.51C109.451 161.443 109.483 161.392 109.53 161.355C109.576 161.318 109.636 161.3 109.71 161.3H110.35V162.915H113.965V168ZM114.18 161.355C114.18 161.462 114.158 161.563 114.115 161.66C114.071 161.753 114.013 161.835 113.94 161.905C113.87 161.975 113.785 162.032 113.685 162.075C113.588 162.115 113.485 162.135 113.375 162.135C113.268 162.135 113.168 162.115 113.075 162.075C112.981 162.032 112.9 161.975 112.83 161.905C112.76 161.835 112.703 161.753 112.66 161.66C112.62 161.563 112.6 161.462 112.6 161.355C112.6 161.245 112.62 161.143 112.66 161.05C112.703 160.953 112.76 160.87 112.83 160.8C112.9 160.727 112.981 160.67 113.075 160.63C113.168 160.587 113.268 160.565 113.375 160.565C113.485 160.565 113.588 160.587 113.685 160.63C113.785 160.67 113.87 160.727 113.94 160.8C114.013 160.87 114.071 160.953 114.115 161.05C114.158 161.143 114.18 161.245 114.18 161.355ZM117.495 162.79C117.875 162.79 118.22 162.852 118.53 162.975C118.844 163.098 119.11 163.273 119.33 163.5C119.554 163.727 119.725 164.003 119.845 164.33C119.965 164.657 120.025 165.022 120.025 165.425C120.025 165.832 119.965 166.198 119.845 166.525C119.725 166.852 119.554 167.13 119.33 167.36C119.11 167.59 118.844 167.767 118.53 167.89C118.22 168.013 117.875 168.075 117.495 168.075C117.112 168.075 116.764 168.013 116.45 167.89C116.137 167.767 115.869 167.59 115.645 167.36C115.425 167.13 115.254 166.852 115.13 166.525C115.01 166.198 114.95 165.832 114.95 165.425C114.95 165.022 115.01 164.657 115.13 164.33C115.254 164.003 115.425 163.727 115.645 163.5C115.869 163.273 116.137 163.098 116.45 162.975C116.764 162.852 117.112 162.79 117.495 162.79ZM117.495 167.125C117.922 167.125 118.237 166.982 118.44 166.695C118.647 166.408 118.75 165.988 118.75 165.435C118.75 164.882 118.647 164.46 118.44 164.17C118.237 163.88 117.922 163.735 117.495 163.735C117.062 163.735 116.74 163.882 116.53 164.175C116.324 164.465 116.22 164.885 116.22 165.435C116.22 165.985 116.324 166.405 116.53 166.695C116.74 166.982 117.062 167.125 117.495 167.125ZM122.122 163.5C122.226 163.397 122.334 163.302 122.447 163.215C122.564 163.125 122.686 163.05 122.812 162.99C122.942 162.927 123.081 162.878 123.227 162.845C123.374 162.808 123.534 162.79 123.707 162.79C123.987 162.79 124.236 162.838 124.452 162.935C124.669 163.028 124.849 163.162 124.992 163.335C125.139 163.505 125.249 163.71 125.322 163.95C125.399 164.187 125.437 164.448 125.437 164.735V168H124.202V164.735C124.202 164.422 124.131 164.18 123.987 164.01C123.844 163.837 123.626 163.75 123.332 163.75C123.119 163.75 122.919 163.798 122.732 163.895C122.546 163.992 122.369 164.123 122.202 164.29V168H120.967V162.87H121.722C121.882 162.87 121.987 162.945 122.037 163.095L122.122 163.5ZM129.742 163.87C129.709 163.923 129.674 163.962 129.637 163.985C129.6 164.005 129.554 164.015 129.497 164.015C129.437 164.015 129.372 163.998 129.302 163.965C129.235 163.932 129.157 163.895 129.067 163.855C128.977 163.812 128.874 163.773 128.757 163.74C128.644 163.707 128.509 163.69 128.352 163.69C128.109 163.69 127.917 163.742 127.777 163.845C127.64 163.948 127.572 164.083 127.572 164.25C127.572 164.36 127.607 164.453 127.677 164.53C127.75 164.603 127.845 164.668 127.962 164.725C128.082 164.782 128.217 164.833 128.367 164.88C128.517 164.923 128.669 164.972 128.822 165.025C128.979 165.078 129.132 165.14 129.282 165.21C129.432 165.277 129.565 165.363 129.682 165.47C129.802 165.573 129.897 165.698 129.967 165.845C130.04 165.992 130.077 166.168 130.077 166.375C130.077 166.622 130.032 166.85 129.942 167.06C129.855 167.267 129.725 167.447 129.552 167.6C129.379 167.75 129.164 167.868 128.907 167.955C128.654 168.038 128.36 168.08 128.027 168.08C127.85 168.08 127.677 168.063 127.507 168.03C127.34 168 127.179 167.957 127.022 167.9C126.869 167.843 126.725 167.777 126.592 167.7C126.462 167.623 126.347 167.54 126.247 167.45L126.532 166.98C126.569 166.923 126.612 166.88 126.662 166.85C126.712 166.82 126.775 166.805 126.852 166.805C126.929 166.805 127 166.827 127.067 166.87C127.137 166.913 127.217 166.96 127.307 167.01C127.397 167.06 127.502 167.107 127.622 167.15C127.745 167.193 127.9 167.215 128.087 167.215C128.234 167.215 128.359 167.198 128.462 167.165C128.569 167.128 128.655 167.082 128.722 167.025C128.792 166.968 128.842 166.903 128.872 166.83C128.905 166.753 128.922 166.675 128.922 166.595C128.922 166.475 128.885 166.377 128.812 166.3C128.742 166.223 128.647 166.157 128.527 166.1C128.41 166.043 128.275 165.993 128.122 165.95C127.972 165.903 127.817 165.853 127.657 165.8C127.5 165.747 127.345 165.685 127.192 165.615C127.042 165.542 126.907 165.45 126.787 165.34C126.67 165.23 126.575 165.095 126.502 164.935C126.432 164.775 126.397 164.582 126.397 164.355C126.397 164.145 126.439 163.945 126.522 163.755C126.605 163.565 126.727 163.4 126.887 163.26C127.05 163.117 127.252 163.003 127.492 162.92C127.735 162.833 128.015 162.79 128.332 162.79C128.685 162.79 129.007 162.848 129.297 162.965C129.587 163.082 129.829 163.235 130.022 163.425L129.742 163.87Z"
            fill="#939090" />
        <path
            d="M19.3381 176.456V175.909H23.1562V176.456H21.5554V181H20.9389V176.456H19.3381ZM24.6148 178.703V181H24.0281V175.909H24.6148V177.778H24.6645C24.754 177.581 24.8882 177.425 25.0672 177.309C25.2478 177.191 25.4881 177.132 25.7881 177.132C26.0483 177.132 26.2761 177.184 26.4717 177.289C26.6672 177.391 26.8189 177.55 26.9266 177.763C27.036 177.976 27.0906 178.246 27.0906 178.574V181H26.504V178.614C26.504 178.31 26.4253 178.076 26.2678 177.91C26.1121 177.743 25.8958 177.659 25.6191 177.659C25.4268 177.659 25.2545 177.7 25.102 177.781C24.9512 177.862 24.8319 177.981 24.7441 178.136C24.6579 178.292 24.6148 178.481 24.6148 178.703ZM29.7647 181.08C29.3968 181.08 29.0795 180.998 28.8127 180.836C28.5475 180.672 28.3429 180.443 28.1987 180.15C28.0562 179.855 27.9849 179.512 27.9849 179.121C27.9849 178.73 28.0562 178.385 28.1987 178.087C28.3429 177.787 28.5434 177.553 28.8002 177.386C29.0588 177.217 29.3604 177.132 29.7051 177.132C29.9039 177.132 30.1003 177.165 30.2942 177.232C30.4881 177.298 30.6646 177.406 30.8237 177.555C30.9828 177.702 31.1096 177.898 31.204 178.141C31.2985 178.385 31.3457 178.685 31.3457 179.041V179.29H28.4025V178.783H30.7491C30.7491 178.567 30.706 178.375 30.6199 178.206C30.5353 178.037 30.4144 177.904 30.2569 177.806C30.1011 177.708 29.9172 177.659 29.7051 177.659C29.4714 177.659 29.2692 177.717 29.0985 177.833C28.9295 177.947 28.7994 178.097 28.7083 178.281C28.6171 178.464 28.5716 178.662 28.5716 178.872V179.21C28.5716 179.499 28.6213 179.743 28.7207 179.944C28.8218 180.142 28.9618 180.294 29.1408 180.398C29.3198 180.501 29.5278 180.553 29.7647 180.553C29.9189 180.553 30.0581 180.531 30.1824 180.488C30.3083 180.443 30.4168 180.377 30.508 180.289C30.5991 180.2 30.6696 180.089 30.7193 179.956L31.286 180.115C31.2264 180.307 31.1261 180.476 30.9853 180.622C30.8444 180.766 30.6704 180.879 30.4632 180.96C30.2561 181.04 30.0233 181.08 29.7647 181.08ZM32.2381 181V177.182H32.8049V177.759H32.8446C32.9142 177.57 33.0402 177.416 33.2225 177.299C33.4048 177.181 33.6103 177.122 33.839 177.122C33.882 177.122 33.9359 177.123 34.0005 177.125C34.0652 177.126 34.1141 177.129 34.1472 177.132V177.729C34.1273 177.724 34.0817 177.716 34.0105 177.706C33.9409 177.695 33.8671 177.689 33.7892 177.689C33.6036 177.689 33.4379 177.728 33.2921 177.806C33.1479 177.882 33.0336 177.988 32.949 178.124C32.8662 178.258 32.8248 178.411 32.8248 178.584V181H32.2381ZM36.3272 181.08C35.9593 181.08 35.642 180.998 35.3752 180.836C35.11 180.672 34.9054 180.443 34.7612 180.15C34.6187 179.855 34.5474 179.512 34.5474 179.121C34.5474 178.73 34.6187 178.385 34.7612 178.087C34.9054 177.787 35.1059 177.553 35.3627 177.386C35.6213 177.217 35.9229 177.132 36.2676 177.132C36.4664 177.132 36.6628 177.165 36.8567 177.232C37.0506 177.298 37.2271 177.406 37.3862 177.555C37.5453 177.702 37.6721 177.898 37.7665 178.141C37.861 178.385 37.9082 178.685 37.9082 179.041V179.29H34.965V178.783H37.3116C37.3116 178.567 37.2685 178.375 37.1824 178.206C37.0978 178.037 36.9769 177.904 36.8194 177.806C36.6636 177.708 36.4797 177.659 36.2676 177.659C36.0339 177.659 35.8317 177.717 35.661 177.833C35.492 177.947 35.3619 178.097 35.2708 178.281C35.1796 178.464 35.1341 178.662 35.1341 178.872V179.21C35.1341 179.499 35.1838 179.743 35.2832 179.944C35.3843 180.142 35.5243 180.294 35.7033 180.398C35.8823 180.501 36.0903 180.553 36.3272 180.553C36.4814 180.553 36.6206 180.531 36.7449 180.488C36.8708 180.443 36.9793 180.377 37.0705 180.289C37.1616 180.2 37.2321 180.089 37.2818 179.956L37.8485 180.115C37.7889 180.307 37.6886 180.476 37.5478 180.622C37.4069 180.766 37.2329 180.879 37.0257 180.96C36.8186 181.04 36.5858 181.08 36.3272 181.08ZM41.8929 181.089C41.651 181.089 41.4314 181.044 41.2342 180.953C41.037 180.86 40.8804 180.727 40.7644 180.553C40.6484 180.377 40.5904 180.165 40.5904 179.916C40.5904 179.697 40.6335 179.52 40.7196 179.384C40.8058 179.247 40.921 179.139 41.0652 179.061C41.2093 178.983 41.3684 178.925 41.5424 178.887C41.7181 178.847 41.8946 178.816 42.0719 178.793C42.3039 178.763 42.492 178.74 42.6362 178.725C42.782 178.709 42.8881 178.682 42.9544 178.643C43.0223 178.605 43.0563 178.539 43.0563 178.445V178.425C43.0563 178.179 42.9892 177.989 42.8549 177.853C42.7224 177.717 42.521 177.649 42.2509 177.649C41.9708 177.649 41.7512 177.71 41.5922 177.833C41.4331 177.956 41.3212 178.087 41.2566 178.226L40.6998 178.027C40.7992 177.795 40.9318 177.614 41.0975 177.485C41.2649 177.354 41.4471 177.263 41.6444 177.212C41.8432 177.159 42.0388 177.132 42.231 177.132C42.3536 177.132 42.4945 177.147 42.6536 177.177C42.8143 177.205 42.9693 177.264 43.1184 177.353C43.2692 177.443 43.3944 177.578 43.4938 177.759C43.5932 177.939 43.6429 178.181 43.6429 178.484V181H43.0563V180.483H43.0265C42.9867 180.566 42.9204 180.654 42.8276 180.749C42.7348 180.843 42.6113 180.924 42.4572 180.99C42.3031 181.056 42.115 181.089 41.8929 181.089ZM41.9824 180.562C42.2144 180.562 42.41 180.517 42.5691 180.426C42.7298 180.335 42.8508 180.217 42.932 180.073C43.0149 179.929 43.0563 179.777 43.0563 179.618V179.081C43.0314 179.111 42.9767 179.138 42.8922 179.163C42.8094 179.186 42.7132 179.207 42.6039 179.225C42.4962 179.242 42.3909 179.257 42.2882 179.27C42.1871 179.281 42.1051 179.291 42.0421 179.3C41.8896 179.32 41.7471 179.352 41.6145 179.397C41.4836 179.44 41.3775 179.505 41.2963 179.593C41.2168 179.679 41.177 179.797 41.177 179.946C41.177 180.15 41.2524 180.304 41.4032 180.408C41.5557 180.511 41.7488 180.562 41.9824 180.562ZM44.7137 181V177.182H45.2805V177.759H45.3202C45.3898 177.57 45.5158 177.416 45.6981 177.299C45.8804 177.181 46.0858 177.122 46.3145 177.122C46.3576 177.122 46.4115 177.123 46.4761 177.125C46.5407 177.126 46.5896 177.129 46.6228 177.132V177.729C46.6029 177.724 46.5573 177.716 46.4861 177.706C46.4165 177.695 46.3427 177.689 46.2648 177.689C46.0792 177.689 45.9135 177.728 45.7677 177.806C45.6235 177.882 45.5091 177.988 45.4246 178.124C45.3418 178.258 45.3003 178.411 45.3003 178.584V181H44.7137ZM48.8028 181.08C48.4349 181.08 48.1176 180.998 47.8508 180.836C47.5856 180.672 47.3809 180.443 47.2368 180.15C47.0943 179.855 47.023 179.512 47.023 179.121C47.023 178.73 47.0943 178.385 47.2368 178.087C47.3809 177.787 47.5815 177.553 47.8383 177.386C48.0969 177.217 48.3985 177.132 48.7432 177.132C48.942 177.132 49.1384 177.165 49.3323 177.232C49.5262 177.298 49.7027 177.406 49.8618 177.555C50.0209 177.702 50.1476 177.898 50.2421 178.141C50.3366 178.385 50.3838 178.685 50.3838 179.041V179.29H47.4406V178.783H49.7872C49.7872 178.567 49.7441 178.375 49.6579 178.206C49.5734 178.037 49.4524 177.904 49.295 177.806C49.1392 177.708 48.9553 177.659 48.7432 177.659C48.5095 177.659 48.3073 177.717 48.1366 177.833C47.9676 177.947 47.8375 178.097 47.7464 178.281C47.6552 178.464 47.6096 178.662 47.6096 178.872V179.21C47.6096 179.499 47.6594 179.743 47.7588 179.944C47.8599 180.142 47.9999 180.294 48.1789 180.398C48.3579 180.501 48.5658 180.553 48.8028 180.553C48.9569 180.553 49.0961 180.531 49.2204 180.488C49.3464 180.443 49.4549 180.377 49.5461 180.289C49.6372 180.2 49.7077 180.089 49.7574 179.956L50.3241 180.115C50.2645 180.307 50.1642 180.476 50.0233 180.622C49.8825 180.766 49.7085 180.879 49.5013 180.96C49.2942 181.04 49.0613 181.08 48.8028 181.08ZM53.8316 178.703V181H53.2449V177.182H53.8117V177.778H53.8614C53.9509 177.585 54.0868 177.429 54.2691 177.311C54.4514 177.192 54.6867 177.132 54.9751 177.132C55.2336 177.132 55.4598 177.185 55.6537 177.291C55.8476 177.396 55.9984 177.555 56.1061 177.768C56.2138 177.981 56.2677 178.249 56.2677 178.574V181H55.681V178.614C55.681 178.314 55.6031 178.08 55.4474 177.913C55.2916 177.744 55.0778 177.659 54.806 177.659C54.6188 177.659 54.4514 177.7 54.3039 177.781C54.1581 177.862 54.0429 177.981 53.9584 178.136C53.8738 178.292 53.8316 178.481 53.8316 178.703ZM58.8908 181.08C58.5461 181.08 58.2437 180.998 57.9835 180.833C57.725 180.669 57.5228 180.44 57.377 180.145C57.2328 179.85 57.1607 179.505 57.1607 179.111C57.1607 178.713 57.2328 178.366 57.377 178.069C57.5228 177.773 57.725 177.542 57.9835 177.378C58.2437 177.214 58.5461 177.132 58.8908 177.132C59.2355 177.132 59.5371 177.214 59.7956 177.378C60.0558 177.542 60.258 177.773 60.4022 178.069C60.548 178.366 60.6209 178.713 60.6209 179.111C60.6209 179.505 60.548 179.85 60.4022 180.145C60.258 180.44 60.0558 180.669 59.7956 180.833C59.5371 180.998 59.2355 181.08 58.8908 181.08ZM58.8908 180.553C59.1526 180.553 59.3681 180.485 59.5371 180.351C59.7061 180.217 59.8313 180.04 59.9125 179.822C59.9937 179.603 60.0343 179.366 60.0343 179.111C60.0343 178.856 59.9937 178.618 59.9125 178.397C59.8313 178.177 59.7061 177.999 59.5371 177.863C59.3681 177.727 59.1526 177.659 58.8908 177.659C58.629 177.659 58.4135 177.727 58.2445 177.863C58.0755 177.999 57.9503 178.177 57.8691 178.397C57.7879 178.618 57.7473 178.856 57.7473 179.111C57.7473 179.366 57.7879 179.603 57.8691 179.822C57.9503 180.04 58.0755 180.217 58.2445 180.351C58.4135 180.485 58.629 180.553 58.8908 180.553ZM65.0363 181.08C64.6784 181.08 64.3701 180.995 64.1116 180.826C63.8531 180.657 63.6542 180.424 63.515 180.127C63.3758 179.831 63.3062 179.492 63.3062 179.111C63.3062 178.723 63.3775 178.381 63.52 178.084C63.6642 177.786 63.8647 177.553 64.1215 177.386C64.3801 177.217 64.6817 177.132 65.0264 177.132C65.2948 177.132 65.5368 177.182 65.7522 177.281C65.9677 177.381 66.1441 177.52 66.2817 177.699C66.4192 177.878 66.5046 178.087 66.5377 178.325H65.9511C65.9063 178.151 65.8069 177.997 65.6528 177.863C65.5003 177.727 65.2948 177.659 65.0363 177.659C64.8076 177.659 64.6071 177.719 64.4347 177.838C64.2641 177.956 64.1307 178.122 64.0345 178.338C63.9401 178.551 63.8928 178.803 63.8928 179.091C63.8928 179.386 63.9392 179.643 64.032 179.862C64.1265 180.08 64.2591 180.25 64.4298 180.371C64.6021 180.492 64.8043 180.553 65.0363 180.553C65.1888 180.553 65.3271 180.526 65.4514 180.473C65.5757 180.42 65.681 180.344 65.7671 180.244C65.8533 180.145 65.9146 180.026 65.9511 179.886H66.5377C66.5046 180.112 66.4226 180.315 66.2916 180.495C66.1624 180.674 65.9909 180.817 65.7771 180.923C65.565 181.027 65.318 181.08 65.0363 181.08ZM67.3953 181V177.182H67.9621V177.759H68.0019C68.0715 177.57 68.1974 177.416 68.3797 177.299C68.562 177.181 68.7675 177.122 68.9962 177.122C69.0393 177.122 69.0931 177.123 69.1578 177.125C69.2224 177.126 69.2713 177.129 69.3044 177.132V177.729C69.2845 177.724 69.239 177.716 69.1677 177.706C69.0981 177.695 69.0244 177.689 68.9465 177.689C68.7609 177.689 68.5951 177.728 68.4493 177.806C68.3051 177.882 68.1908 177.988 68.1063 178.124C68.0234 178.258 67.982 178.411 67.982 178.584V181H67.3953ZM71.4845 181.08C71.1166 181.08 70.7992 180.998 70.5324 180.836C70.2673 180.672 70.0626 180.443 69.9184 180.15C69.7759 179.855 69.7046 179.512 69.7046 179.121C69.7046 178.73 69.7759 178.385 69.9184 178.087C70.0626 177.787 70.2631 177.553 70.52 177.386C70.7785 177.217 71.0801 177.132 71.4248 177.132C71.6237 177.132 71.82 177.165 72.0139 177.232C72.2078 177.298 72.3843 177.406 72.5434 177.555C72.7025 177.702 72.8293 177.898 72.9237 178.141C73.0182 178.385 73.0654 178.685 73.0654 179.041V179.29H70.1222V178.783H72.4688C72.4688 178.567 72.4258 178.375 72.3396 178.206C72.2551 178.037 72.1341 177.904 71.9767 177.806C71.8209 177.708 71.6369 177.659 71.4248 177.659C71.1911 177.659 70.989 177.717 70.8183 177.833C70.6492 177.947 70.5191 178.097 70.428 178.281C70.3369 178.464 70.2913 178.662 70.2913 178.872V179.21C70.2913 179.499 70.341 179.743 70.4404 179.944C70.5415 180.142 70.6816 180.294 70.8605 180.398C71.0395 180.501 71.2475 180.553 71.4845 180.553C71.6386 180.553 71.7778 180.531 71.9021 180.488C72.028 180.443 72.1366 180.377 72.2277 180.289C72.3189 180.2 72.3893 180.089 72.439 179.956L73.0058 180.115C72.9461 180.307 72.8459 180.476 72.705 180.622C72.5641 180.766 72.3901 180.879 72.183 180.96C71.9758 181.04 71.743 181.08 71.4845 181.08ZM75.3996 181.08C75.0814 181.08 74.8005 180.999 74.5569 180.838C74.3133 180.676 74.1227 180.447 73.9852 180.152C73.8476 179.856 73.7789 179.505 73.7789 179.101C73.7789 178.7 73.8476 178.352 73.9852 178.057C74.1227 177.762 74.3141 177.534 74.5594 177.373C74.8047 177.212 75.088 177.132 75.4095 177.132C75.6581 177.132 75.8545 177.174 75.9987 177.256C76.1445 177.338 76.2555 177.43 76.3318 177.535C76.4097 177.638 76.4701 177.722 76.5132 177.788H76.5629V175.909H77.1496V181H76.5828V180.413H76.5132C76.4701 180.483 76.4088 180.571 76.3293 180.677C76.2497 180.781 76.1362 180.875 75.9887 180.958C75.8412 181.039 75.6449 181.08 75.3996 181.08ZM75.4791 180.553C75.7145 180.553 75.9133 180.491 76.0757 180.369C76.2381 180.244 76.3616 180.073 76.4461 179.854C76.5306 179.634 76.5729 179.379 76.5729 179.091C76.5729 178.806 76.5315 178.556 76.4486 178.343C76.3657 178.127 76.2431 177.96 76.0807 177.841C75.9183 177.72 75.7178 177.659 75.4791 177.659C75.2306 177.659 75.0234 177.723 74.8577 177.85C74.6936 177.976 74.5702 178.148 74.4873 178.365C74.4061 178.58 74.3655 178.822 74.3655 179.091C74.3655 179.363 74.4069 179.61 74.4898 179.832C74.5743 180.052 74.6986 180.228 74.8627 180.359C75.0284 180.488 75.2339 180.553 75.4791 180.553ZM78.3055 181V177.182H78.8921V181H78.3055ZM78.6038 176.545C78.4894 176.545 78.3908 176.507 78.308 176.429C78.2268 176.351 78.1862 176.257 78.1862 176.148C78.1862 176.038 78.2268 175.945 78.308 175.867C78.3908 175.789 78.4894 175.75 78.6038 175.75C78.7181 175.75 78.8159 175.789 78.8971 175.867C78.98 175.945 79.0214 176.038 79.0214 176.148C79.0214 176.257 78.98 176.351 78.8971 176.429C78.8159 176.507 78.7181 176.545 78.6038 176.545ZM81.6271 177.182V177.679H79.6484V177.182H81.6271ZM80.2251 176.267H80.8118V179.906C80.8118 180.072 80.8358 180.196 80.8839 180.279C80.9336 180.36 80.9966 180.415 81.0728 180.443C81.1507 180.47 81.2327 180.483 81.3189 180.483C81.3835 180.483 81.4366 180.48 81.478 180.473C81.5194 180.465 81.5526 180.458 81.5774 180.453L81.6967 180.98C81.657 180.995 81.6014 181.01 81.5302 181.025C81.4589 181.041 81.3686 181.05 81.2592 181.05C81.0935 181.05 80.9311 181.014 80.772 180.943C80.6146 180.872 80.4837 180.763 80.3793 180.617C80.2765 180.471 80.2251 180.287 80.2251 180.065V176.267ZM85.1458 178.037L84.6188 178.186C84.5856 178.098 84.5368 178.013 84.4721 177.93C84.4092 177.846 84.323 177.776 84.2136 177.721C84.1042 177.667 83.9642 177.639 83.7935 177.639C83.5598 177.639 83.3651 177.693 83.2093 177.801C83.0552 177.907 82.9782 178.042 82.9782 178.206C82.9782 178.352 83.0312 178.467 83.1373 178.551C83.2433 178.636 83.409 178.706 83.6344 178.763L84.2012 178.902C84.5426 178.985 84.7969 179.112 84.9643 179.282C85.1317 179.451 85.2154 179.669 85.2154 179.936C85.2154 180.155 85.1524 180.35 85.0265 180.523C84.9022 180.695 84.7282 180.831 84.5044 180.93C84.2807 181.03 84.0205 181.08 83.7239 181.08C83.3345 181.08 83.0121 180.995 82.7569 180.826C82.5017 180.657 82.3401 180.41 82.2722 180.085L82.829 179.946C82.882 180.152 82.9823 180.306 83.1298 180.408C83.2789 180.511 83.4737 180.562 83.714 180.562C83.9874 180.562 84.2045 180.504 84.3652 180.388C84.5276 180.271 84.6088 180.13 84.6088 179.966C84.6088 179.833 84.5624 179.722 84.4696 179.633C84.3768 179.542 84.2343 179.474 84.0421 179.429L83.4057 179.28C83.056 179.197 82.7992 179.069 82.6351 178.895C82.4727 178.719 82.3915 178.499 82.3915 178.236C82.3915 178.02 82.452 177.83 82.573 177.664C82.6956 177.498 82.8622 177.368 83.0726 177.274C83.2847 177.179 83.525 177.132 83.7935 177.132C84.1713 177.132 84.468 177.215 84.6834 177.381C84.9005 177.546 85.0546 177.765 85.1458 178.037ZM87.8982 175.67L86.2575 181.766H85.7206L87.3612 175.67H87.8982ZM90.0353 181.08C89.7172 181.08 89.4363 180.999 89.1926 180.838C88.949 180.676 88.7585 180.447 88.6209 180.152C88.4834 179.856 88.4146 179.505 88.4146 179.101C88.4146 178.7 88.4834 178.352 88.6209 178.057C88.7585 177.762 88.9499 177.534 89.1951 177.373C89.4404 177.212 89.7238 177.132 90.0453 177.132C90.2939 177.132 90.4902 177.174 90.6344 177.256C90.7802 177.338 90.8913 177.43 90.9675 177.535C91.0454 177.638 91.1059 177.722 91.149 177.788H91.1987V175.909H91.7853V181H91.2186V180.413H91.149C91.1059 180.483 91.0446 180.571 90.965 180.677C90.8855 180.781 90.772 180.875 90.6245 180.958C90.477 181.039 90.2806 181.08 90.0353 181.08ZM90.1149 180.553C90.3502 180.553 90.5491 180.491 90.7115 180.369C90.8739 180.244 90.9973 180.073 91.0819 179.854C91.1664 179.634 91.2086 179.379 91.2086 179.091C91.2086 178.806 91.1672 178.556 91.0843 178.343C91.0015 178.127 90.8788 177.96 90.7164 177.841C90.554 177.72 90.3535 177.659 90.1149 177.659C89.8663 177.659 89.6592 177.723 89.4934 177.85C89.3294 177.976 89.2059 178.148 89.123 178.365C89.0418 178.58 89.0012 178.822 89.0012 179.091C89.0012 179.363 89.0427 179.61 89.1255 179.832C89.21 180.052 89.3343 180.228 89.4984 180.359C89.6641 180.488 89.8696 180.553 90.1149 180.553ZM94.5421 181.08C94.1742 181.08 93.8568 180.998 93.59 180.836C93.3249 180.672 93.1202 180.443 92.976 180.15C92.8335 179.855 92.7623 179.512 92.7623 179.121C92.7623 178.73 92.8335 178.385 92.976 178.087C93.1202 177.787 93.3207 177.553 93.5776 177.386C93.8361 177.217 94.1377 177.132 94.4824 177.132C94.6813 177.132 94.8777 177.165 95.0716 177.232C95.2654 177.298 95.4419 177.406 95.601 177.555C95.7601 177.702 95.8869 177.898 95.9814 178.141C96.0758 178.385 96.123 178.685 96.123 179.041V179.29H93.1799V178.783H95.5265C95.5265 178.567 95.4834 178.375 95.3972 178.206C95.3127 178.037 95.1917 177.904 95.0343 177.806C94.8785 177.708 94.6945 177.659 94.4824 177.659C94.2488 177.659 94.0466 177.717 93.8759 177.833C93.7069 177.947 93.5768 178.097 93.4856 178.281C93.3945 178.464 93.3489 178.662 93.3489 178.872V179.21C93.3489 179.499 93.3986 179.743 93.498 179.944C93.5991 180.142 93.7392 180.294 93.9181 180.398C94.0971 180.501 94.3051 180.553 94.5421 180.553C94.6962 180.553 94.8354 180.531 94.9597 180.488C95.0856 180.443 95.1942 180.377 95.2853 180.289C95.3765 180.2 95.4469 180.089 95.4966 179.956L96.0634 180.115C96.0037 180.307 95.9035 180.476 95.7626 180.622C95.6217 180.766 95.4477 180.879 95.2406 180.96C95.0334 181.04 94.8006 181.08 94.5421 181.08ZM97.095 181V175.909H97.6816V177.788H97.7314C97.7744 177.722 97.8341 177.638 97.9103 177.535C97.9882 177.43 98.0993 177.338 98.2434 177.256C98.3893 177.174 98.5865 177.132 98.835 177.132C99.1565 177.132 99.4399 177.212 99.6852 177.373C99.9305 177.534 100.122 177.762 100.259 178.057C100.397 178.352 100.466 178.7 100.466 179.101C100.466 179.505 100.397 179.856 100.259 180.152C100.122 180.447 99.9313 180.676 99.6877 180.838C99.4441 180.999 99.1632 181.08 98.845 181.08C98.5997 181.08 98.4033 181.039 98.2559 180.958C98.1084 180.875 97.9949 180.781 97.9153 180.677C97.8358 180.571 97.7744 180.483 97.7314 180.413H97.6618V181H97.095ZM97.6717 179.091C97.6717 179.379 97.714 179.634 97.7985 179.854C97.883 180.073 98.0065 180.244 98.1689 180.369C98.3313 180.491 98.5301 180.553 98.7654 180.553C99.0107 180.553 99.2154 180.488 99.3794 180.359C99.5452 180.228 99.6694 180.052 99.7523 179.832C99.8368 179.61 99.8791 179.363 99.8791 179.091C99.8791 178.822 99.8377 178.58 99.7548 178.365C99.6736 178.148 99.5501 177.976 99.3844 177.85C99.2203 177.723 99.014 177.659 98.7654 177.659C98.5268 177.659 98.3263 177.72 98.1639 177.841C98.0015 177.96 97.8788 178.127 97.796 178.343C97.7131 178.556 97.6717 178.806 97.6717 179.091ZM101.363 181V177.182H101.95V181H101.363ZM101.661 176.545C101.547 176.545 101.448 176.507 101.366 176.429C101.284 176.351 101.244 176.257 101.244 176.148C101.244 176.038 101.284 175.945 101.366 175.867C101.448 175.789 101.547 175.75 101.661 175.75C101.776 175.75 101.874 175.789 101.955 175.867C102.038 175.945 102.079 176.038 102.079 176.148C102.079 176.257 102.038 176.351 101.955 176.429C101.874 176.507 101.776 176.545 101.661 176.545ZM104.685 177.182V177.679H102.706V177.182H104.685ZM103.283 176.267H103.869V179.906C103.869 180.072 103.893 180.196 103.941 180.279C103.991 180.36 104.054 180.415 104.13 180.443C104.208 180.47 104.29 180.483 104.377 180.483C104.441 180.483 104.494 180.48 104.536 180.473C104.577 180.465 104.61 180.458 104.635 180.453L104.754 180.98C104.715 180.995 104.659 181.01 104.588 181.025C104.517 181.041 104.426 181.05 104.317 181.05C104.151 181.05 103.989 181.014 103.83 180.943C103.672 180.872 103.541 180.763 103.437 180.617C103.334 180.471 103.283 180.287 103.283 180.065V176.267ZM108.203 178.037L107.676 178.186C107.643 178.098 107.594 178.013 107.53 177.93C107.467 177.846 107.381 177.776 107.271 177.721C107.162 177.667 107.022 177.639 106.851 177.639C106.617 177.639 106.423 177.693 106.267 177.801C106.113 177.907 106.036 178.042 106.036 178.206C106.036 178.352 106.089 178.467 106.195 178.551C106.301 178.636 106.467 178.706 106.692 178.763L107.259 178.902C107.6 178.985 107.855 179.112 108.022 179.282C108.189 179.451 108.273 179.669 108.273 179.936C108.273 180.155 108.21 180.35 108.084 180.523C107.96 180.695 107.786 180.831 107.562 180.93C107.338 181.03 107.078 181.08 106.782 181.08C106.392 181.08 106.07 180.995 105.815 180.826C105.559 180.657 105.398 180.41 105.33 180.085L105.887 179.946C105.94 180.152 106.04 180.306 106.187 180.408C106.337 180.511 106.531 180.562 106.772 180.562C107.045 180.562 107.262 180.504 107.423 180.388C107.585 180.271 107.666 180.13 107.666 179.966C107.666 179.833 107.62 179.722 107.527 179.633C107.434 179.542 107.292 179.474 107.1 179.429L106.463 179.28C106.114 179.197 105.857 179.069 105.693 178.895C105.53 178.719 105.449 178.499 105.449 178.236C105.449 178.02 105.51 177.83 105.631 177.664C105.753 177.498 105.92 177.368 106.13 177.274C106.342 177.179 106.583 177.132 106.851 177.132C107.229 177.132 107.526 177.215 107.741 177.381C107.958 177.546 108.112 177.765 108.203 178.037ZM111.125 181V177.182H111.711V181H111.125ZM111.423 176.545C111.309 176.545 111.21 176.507 111.127 176.429C111.046 176.351 111.006 176.257 111.006 176.148C111.006 176.038 111.046 175.945 111.127 175.867C111.21 175.789 111.309 175.75 111.423 175.75C111.537 175.75 111.635 175.789 111.716 175.867C111.799 175.945 111.841 176.038 111.841 176.148C111.841 176.257 111.799 176.351 111.716 176.429C111.635 176.507 111.537 176.545 111.423 176.545ZM113.373 178.703V181H112.786V177.182H113.353V177.778H113.402C113.492 177.585 113.628 177.429 113.81 177.311C113.992 177.192 114.228 177.132 114.516 177.132C114.775 177.132 115.001 177.185 115.195 177.291C115.389 177.396 115.539 177.555 115.647 177.768C115.755 177.981 115.809 178.249 115.809 178.574V181H115.222V178.614C115.222 178.314 115.144 178.08 114.988 177.913C114.833 177.744 114.619 177.659 114.347 177.659C114.16 177.659 113.992 177.7 113.845 177.781C113.699 177.862 113.584 177.981 113.499 178.136C113.415 178.292 113.373 178.481 113.373 178.703ZM119.227 182.432C119.128 182.432 119.039 182.424 118.961 182.407C118.883 182.392 118.83 182.377 118.8 182.362L118.949 181.845C119.091 181.882 119.217 181.895 119.327 181.885C119.436 181.875 119.533 181.826 119.618 181.738C119.704 181.652 119.782 181.512 119.854 181.318L119.963 181.02L118.551 177.182H119.188L120.241 180.224H120.281L121.335 177.182H121.972L120.351 181.557C120.278 181.754 120.188 181.917 120.08 182.047C119.972 182.177 119.847 182.274 119.705 182.337C119.564 182.4 119.405 182.432 119.227 182.432ZM124.16 181.08C123.816 181.08 123.513 180.998 123.253 180.833C122.994 180.669 122.792 180.44 122.646 180.145C122.502 179.85 122.43 179.505 122.43 179.111C122.43 178.713 122.502 178.366 122.646 178.069C122.792 177.773 122.994 177.542 123.253 177.378C123.513 177.214 123.816 177.132 124.16 177.132C124.505 177.132 124.807 177.214 125.065 177.378C125.325 177.542 125.528 177.773 125.672 178.069C125.818 178.366 125.89 178.713 125.89 179.111C125.89 179.505 125.818 179.85 125.672 180.145C125.528 180.44 125.325 180.669 125.065 180.833C124.807 180.998 124.505 181.08 124.16 181.08ZM124.16 180.553C124.422 180.553 124.638 180.485 124.807 180.351C124.976 180.217 125.101 180.04 125.182 179.822C125.263 179.603 125.304 179.366 125.304 179.111C125.304 178.856 125.263 178.618 125.182 178.397C125.101 178.177 124.976 177.999 124.807 177.863C124.638 177.727 124.422 177.659 124.16 177.659C123.898 177.659 123.683 177.727 123.514 177.863C123.345 177.999 123.22 178.177 123.139 178.397C123.057 178.618 123.017 178.856 123.017 179.111C123.017 179.366 123.057 179.603 123.139 179.822C123.22 180.04 123.345 180.217 123.514 180.351C123.683 180.485 123.898 180.553 124.16 180.553ZM129.192 179.439V177.182H129.779V181H129.192V180.354H129.152C129.063 180.548 128.924 180.712 128.735 180.848C128.546 180.983 128.307 181.05 128.019 181.05C127.78 181.05 127.568 180.998 127.383 180.893C127.197 180.787 127.051 180.628 126.945 180.416C126.839 180.202 126.786 179.933 126.786 179.608V177.182H127.373V179.568C127.373 179.847 127.45 180.069 127.606 180.234C127.764 180.4 127.964 180.483 128.208 180.483C128.354 180.483 128.502 180.446 128.653 180.371C128.805 180.297 128.933 180.182 129.036 180.028C129.14 179.874 129.192 179.678 129.192 179.439ZM130.853 181V177.182H131.42V177.759H131.46C131.529 177.57 131.655 177.416 131.838 177.299C132.02 177.181 132.225 177.122 132.454 177.122C132.497 177.122 132.551 177.123 132.616 177.125C132.68 177.126 132.729 177.129 132.762 177.132V177.729C132.743 177.724 132.697 177.716 132.626 177.706C132.556 177.695 132.482 177.689 132.404 177.689C132.219 177.689 132.053 177.728 131.907 177.806C131.763 177.882 131.649 177.988 131.564 178.124C131.481 178.258 131.44 178.411 131.44 178.584V181H130.853ZM136.292 181L135.128 177.182H135.745L136.57 180.105H136.61L137.425 177.182H138.052L138.857 180.095H138.897L139.722 177.182H140.339L139.175 181H138.598L137.763 178.067H137.704L136.868 181H136.292ZM142.238 181.089C141.996 181.089 141.776 181.044 141.579 180.953C141.382 180.86 141.225 180.727 141.109 180.553C140.993 180.377 140.935 180.165 140.935 179.916C140.935 179.697 140.978 179.52 141.064 179.384C141.151 179.247 141.266 179.139 141.41 179.061C141.554 178.983 141.713 178.925 141.887 178.887C142.063 178.847 142.239 178.816 142.417 178.793C142.649 178.763 142.837 178.74 142.981 178.725C143.127 178.709 143.233 178.682 143.299 178.643C143.367 178.605 143.401 178.539 143.401 178.445V178.425C143.401 178.179 143.334 177.989 143.2 177.853C143.067 177.717 142.866 177.649 142.596 177.649C142.316 177.649 142.096 177.71 141.937 177.833C141.778 177.956 141.666 178.087 141.601 178.226L141.044 178.027C141.144 177.795 141.276 177.614 141.442 177.485C141.61 177.354 141.792 177.263 141.989 177.212C142.188 177.159 142.383 177.132 142.576 177.132C142.698 177.132 142.839 177.147 142.998 177.177C143.159 177.205 143.314 177.264 143.463 177.353C143.614 177.443 143.739 177.578 143.839 177.759C143.938 177.939 143.988 178.181 143.988 178.484V181H143.401V180.483H143.371C143.331 180.566 143.265 180.654 143.172 180.749C143.08 180.843 142.956 180.924 142.802 180.99C142.648 181.056 142.46 181.089 142.238 181.089ZM142.327 180.562C142.559 180.562 142.755 180.517 142.914 180.426C143.075 180.335 143.196 180.217 143.277 180.073C143.36 179.929 143.401 179.777 143.401 179.618V179.081C143.376 179.111 143.321 179.138 143.237 179.163C143.154 179.186 143.058 179.207 142.949 179.225C142.841 179.242 142.736 179.257 142.633 179.27C142.532 179.281 142.45 179.291 142.387 179.3C142.234 179.32 142.092 179.352 141.959 179.397C141.828 179.44 141.722 179.505 141.641 179.593C141.562 179.679 141.522 179.797 141.522 179.946C141.522 180.15 141.597 180.304 141.748 180.408C141.9 180.511 142.093 180.562 142.327 180.562ZM145.645 175.909V181H145.058V175.909H145.645ZM147.306 175.909V181H146.72V175.909H147.306ZM149.982 181.08C149.614 181.08 149.296 180.998 149.029 180.836C148.764 180.672 148.56 180.443 148.415 180.15C148.273 179.855 148.202 179.512 148.202 179.121C148.202 178.73 148.273 178.385 148.415 178.087C148.56 177.787 148.76 177.553 149.017 177.386C149.276 177.217 149.577 177.132 149.922 177.132C150.121 177.132 150.317 177.165 150.511 177.232C150.705 177.298 150.881 177.406 151.04 177.555C151.2 177.702 151.326 177.898 151.421 178.141C151.515 178.385 151.562 178.685 151.562 179.041V179.29H148.619V178.783H150.966C150.966 178.567 150.923 178.375 150.837 178.206C150.752 178.037 150.631 177.904 150.474 177.806C150.318 177.708 150.134 177.659 149.922 177.659C149.688 177.659 149.486 177.717 149.315 177.833C149.146 177.947 149.016 178.097 148.925 178.281C148.834 178.464 148.788 178.662 148.788 178.872V179.21C148.788 179.499 148.838 179.743 148.938 179.944C149.039 180.142 149.179 180.294 149.358 180.398C149.537 180.501 149.745 180.553 149.982 180.553C150.136 180.553 150.275 180.531 150.399 180.488C150.525 180.443 150.634 180.377 150.725 180.289C150.816 180.2 150.886 180.089 150.936 179.956L151.503 180.115C151.443 180.307 151.343 180.476 151.202 180.622C151.061 180.766 150.887 180.879 150.68 180.96C150.473 181.04 150.24 181.08 149.982 181.08ZM154.115 177.182V177.679H152.137V177.182H154.115ZM152.713 176.267H153.3V179.906C153.3 180.072 153.324 180.196 153.372 180.279C153.422 180.36 153.485 180.415 153.561 180.443C153.639 180.47 153.721 180.483 153.807 180.483C153.872 180.483 153.925 180.48 153.966 180.473C154.008 180.465 154.041 180.458 154.066 180.453L154.185 180.98C154.145 180.995 154.09 181.01 154.018 181.025C153.947 181.041 153.857 181.05 153.748 181.05C153.582 181.05 153.419 181.014 153.26 180.943C153.103 180.872 152.972 180.763 152.868 180.617C152.765 180.471 152.713 180.287 152.713 180.065V176.267Z"
            fill="#A0A0A0" />
        <path
            d="M105.66 61.42C97.2899 61.42 88.77 61.08 80.7999 58.86C72.9799 56.69 65.7999 52.48 59.3999 47.61C55.2099 44.44 51.3999 41.92 45.9599 42.3C40.6335 42.5916 35.5423 44.5901 31.4399 48C24.5199 54 25.5599 65.23 28.3299 73.12C32.4899 85 45.1499 93.23 55.9099 98.61C68.34 104.82 82 108.42 95.6899 110.5C107.69 112.32 123.11 113.65 133.51 105.81C143.06 98.61 145.68 82.17 143.34 71.07C142.773 67.7879 141.027 64.8257 138.43 62.74C131.72 57.84 121.71 61.11 114.17 61.28C111.37 61.34 108.52 61.41 105.66 61.42Z"
            fill="#F2F2F2" />
        <path
            d="M85.18 129.95C105.454 129.95 121.89 128.925 121.89 127.66C121.89 126.395 105.454 125.37 85.18 125.37C64.9056 125.37 48.47 126.395 48.47 127.66C48.47 128.925 64.9056 129.95 85.18 129.95Z"
            fill="#F2F2F2" />
        <path
            d="M107.19 20.62C107.731 20.62 108.17 20.1813 108.17 19.64C108.17 19.0988 107.731 18.66 107.19 18.66C106.649 18.66 106.21 19.0988 106.21 19.64C106.21 20.1813 106.649 20.62 107.19 20.62Z"
            fill="#CFCFCF" />
        <path
            d="M43.5401 104.2C44.0813 104.2 44.5201 103.761 44.5201 103.22C44.5201 102.679 44.0813 102.24 43.5401 102.24C42.9988 102.24 42.5601 102.679 42.5601 103.22C42.5601 103.761 42.9988 104.2 43.5401 104.2Z"
            fill="#CFCFCF" />
        <path
            d="M57.96 20.05C58.5012 20.05 58.94 19.6112 58.94 19.07C58.94 18.5287 58.5012 18.09 57.96 18.09C57.4187 18.09 56.98 18.5287 56.98 19.07C56.98 19.6112 57.4187 20.05 57.96 20.05Z"
            fill="#CFCFCF" />
        <path
            d="M135.79 56.7799C136.331 56.7799 136.77 56.3412 136.77 55.7999C136.77 55.2587 136.331 54.8199 135.79 54.8199C135.249 54.8199 134.81 55.2587 134.81 55.7999C134.81 56.3412 135.249 56.7799 135.79 56.7799Z"
            fill="#CFCFCF" />
        <path d="M81.4199 111.19V115.5" stroke="#BABABA" stroke-linecap="round"
            stroke-linejoin="round" />
        <path d="M79.26 113.35H83.57" stroke="#BABABA" stroke-linecap="round"
            stroke-linejoin="round" />
        <path d="M125.02 38.02V42.33" stroke="#BABABA" stroke-linecap="round"
            stroke-linejoin="round" />
        <path d="M122.86 40.1801H127.17" stroke="#BABABA" stroke-linecap="round"
            stroke-linejoin="round" />
        <path d="M75.6001 31.95V36.2599" stroke="#BABABA" stroke-linecap="round"
            stroke-linejoin="round" />
        <path d="M73.45 34.1H77.75" stroke="#BABABA" stroke-linecap="round" stroke-linejoin="round" />
        <path
            d="M50.8301 64.2201C58.1258 64.2201 64.0401 58.3057 64.0401 51.01C64.0401 43.7144 58.1258 37.8 50.8301 37.8C43.5344 37.8 37.6201 43.7144 37.6201 51.01C37.6201 58.3057 43.5344 64.2201 50.8301 64.2201Z"
            fill="white" stroke="#BABABA" stroke-linecap="round" stroke-linejoin="round" />
        <path
            d="M50.83 60.63C56.1429 60.63 60.45 56.323 60.45 51.01C60.45 45.697 56.1429 41.39 50.83 41.39C45.517 41.39 41.21 45.697 41.21 51.01C41.21 56.323 45.517 60.63 50.83 60.63Z"
            fill="#D2D2D2" />
        <path
            d="M50.57 57.21L50.51 55.69C49.6957 55.7184 48.8893 55.5211 48.18 55.12L48.5 54.12C49.1599 54.5168 49.9204 54.7148 50.69 54.69C51.76 54.69 52.46 54 52.42 53.14C52.38 52.28 51.78 51.82 50.65 51.42C49.09 50.88 48.12 50.22 48.07 48.91C48.0556 48.2969 48.2697 47.7003 48.6708 47.2364C49.0719 46.7725 49.6313 46.4743 50.24 46.4L50.18 44.88H51.11L51.17 46.34C51.8642 46.3169 52.5527 46.4718 53.17 46.79L52.83 47.79C52.245 47.4729 51.5848 47.3208 50.92 47.35C49.76 47.4 49.35 48.11 49.37 48.71C49.37 49.49 49.98 49.86 51.31 50.35C52.88 50.92 53.69 51.67 53.75 53.01C53.7628 53.6549 53.5373 54.2819 53.1166 54.7709C52.6959 55.2598 52.1096 55.5764 51.47 55.66L51.53 57.23L50.57 57.21Z"
            fill="white" />
        <path
            d="M114 93.41L64.93 105.73C63.9572 105.973 62.9419 105.991 61.961 105.783C60.9802 105.575 60.0596 105.147 59.2692 104.53C58.4788 103.913 57.8393 103.124 57.3993 102.223C56.9594 101.322 56.7305 100.333 56.73 99.33V46.38L112.12 32.48C112.692 32.3372 113.288 32.3265 113.865 32.4487C114.441 32.5709 114.982 32.8227 115.446 33.1851C115.911 33.5475 116.287 34.0109 116.546 34.5402C116.804 35.0695 116.939 35.6508 116.94 36.24V89.66C116.939 90.5234 116.648 91.3616 116.116 92.0411C115.583 92.7206 114.838 93.2025 114 93.41Z"
            fill="#D2D2D2" />
        <path
            d="M56.73 46.73H126C126.508 46.73 127.011 46.8301 127.481 47.0246C127.951 47.2191 128.377 47.5041 128.736 47.8635C129.096 48.2228 129.381 48.6495 129.575 49.119C129.77 49.5885 129.87 50.0918 129.87 50.6V104.26C129.87 104.768 129.77 105.271 129.575 105.741C129.381 106.21 129.096 106.637 128.736 106.996C128.377 107.356 127.951 107.641 127.481 107.835C127.011 108.03 126.508 108.13 126 108.13H61.39C60.1541 108.13 58.9688 107.639 58.0949 106.765C57.2209 105.891 56.73 104.706 56.73 103.47V46.73Z"
            fill="white" stroke="#BABABA" stroke-linecap="round" stroke-linejoin="round" />
        <path
            d="M120.12 81.71C122.484 81.71 124.4 79.7938 124.4 77.43C124.4 75.0662 122.484 73.15 120.12 73.15C117.756 73.15 115.84 75.0662 115.84 77.43C115.84 79.7938 117.756 81.71 120.12 81.71Z"
            fill="#D2D2D2" />
    </g>
    <defs>
        <clipPath id="clip0_1_1167">
            <rect width="170.35" height="215.38" fill="white" />
        </clipPath>
    </defs>
</svg>